<?xml version="1.0" encoding="UTF-8"?>
<svg width="36px" height="36px" viewBox="0 0 36 36" version="1.1" xmlns="http://www.w3.org/2000/svg" xmlns:xlink="http://www.w3.org/1999/xlink">
    <!-- Generator: Sketch 63.1 (92452) - https://sketch.com -->
    <title>DuckDuckGo</title>
    <desc>Created with Sketch.</desc>
    <g id="DuckDuckGo" stroke="none" stroke-width="1" fill="none" fill-rule="evenodd">
        <g id="编组-2" transform="translate(2.000000, 2.000000)">
            <circle id="椭圆形" fill="#DE5833" fill-rule="nonzero" cx="15.9722948" cy="15.9722948" r="15.9722948"></circle>
            <path d="M29.4955045,10.2488892 C28.7501307,8.49193676 27.6853111,6.92132776 26.3542865,5.59030319 C24.9966414,4.23265813 23.4260324,3.19445897 21.6957005,2.44908521 C19.8855071,1.67709096 17.9688317,1.30440408 15.9722948,1.30440408 C14.0023785,1.30440408 12.0590826,1.70371145 10.2488892,2.44908521 C8.49193676,3.16783848 6.92132776,4.23265813 5.59030319,5.59030319 C4.23265813,6.94794825 3.19445897,8.51855725 2.44908521,10.2488892 C1.67709096,12.0590826 1.30440408,13.975758 1.30440408,15.9722948 C1.30440408,17.9688317 1.70371145,19.8855071 2.44908521,21.6957005 C3.19445897,23.4526529 4.25927862,25.0232619 5.59030319,26.3542865 C6.94794825,27.7119315 8.51855725,28.7501307 10.2488892,29.4955045 C12.0590826,30.2674987 13.975758,30.6401856 15.9722948,30.6401856 C17.9422112,30.6401856 19.8855071,30.2408782 21.6957005,29.4955045 C23.4260324,28.7501307 24.9966414,27.6853111 26.3542865,26.3542865 C27.7119315,24.9966414 28.7501307,23.4260324 29.4955045,21.6957005 C30.2674987,19.8855071 30.6401856,17.9688317 30.6401856,15.9722948 C30.6401856,13.975758 30.2674987,12.0590826 29.4955045,10.2488892 Z M19.1667538,29.1494381 C18.3148981,27.7119315 16.0787768,23.6922373 16.0787768,20.7107423 C16.0787768,13.8426555 20.6841218,19.7257841 20.6841218,14.2419629 C20.6841218,12.9375588 20.04523,8.3588343 16.0521563,7.40049661 C15.0671981,6.09609253 12.7512154,4.84492943 9.07758757,5.35071877 C9.07758757,5.35071877 9.68985887,5.53706221 10.3819916,5.8831286 C10.3819916,5.8831286 9.05096708,6.06947204 8.99772609,6.97456875 C8.99772609,6.97456875 11.6331547,6.84146629 13.1239023,7.32063513 C9.68985887,7.77318349 7.93290644,9.5833769 8.25235233,12.8576973 C8.70490069,17.5162833 10.6748171,25.8218767 11.3669498,28.7235102 C6.14933351,26.8600758 2.39584423,21.8554234 2.39584423,15.9722948 C2.39584423,8.49193676 8.46531626,2.39584423 15.9722948,2.39584423 C23.4792734,2.39584423 29.5487455,8.46531626 29.5487455,15.9722948 C29.522125,22.3612128 25.1031234,27.7119315 19.1667538,29.1494381 Z" id="形状" fill="#FFFFFF" fill-rule="nonzero"></path>
            <path d="M15.2269211,18.1817956 C15.2269211,16.4248432 17.6227653,15.8658129 18.527862,15.8658129 C20.9769472,15.8658129 24.4376111,14.2952039 25.2894668,14.3218244 C26.167943,14.3484449 26.7269734,14.6945113 26.7269734,15.0938186 C26.7269734,15.6794694 21.8288029,17.8889702 19.9387481,17.7026268 C18.1285546,17.5429038 17.7026268,17.7292473 17.7026268,18.474621 C17.7026268,19.1135128 19.0070309,19.6991636 20.4445374,19.6991636 C22.6007972,19.6991636 24.703816,18.7408259 25.3427078,19.1933743 C25.9017381,19.5926817 23.8785808,21.0301882 21.562598,21.0301882 C19.2466153,21.0301882 15.2269211,19.9387481 15.2269211,18.1817956 L15.2269211,18.1817956 Z" id="路径" fill="#FED30A"></path>
            <path d="M19.4861997,10.728058 C18.8473079,9.9028228 17.7026268,9.87620231 17.3033194,10.83454 C17.9155907,10.3553712 18.6609645,10.2488892 19.4861997,10.728058 Z" id="路径" fill="#2D4F8D" fill-rule="nonzero"></path>
            <path d="M12.3785285,10.7546785 C11.5000523,10.2222687 10.0359253,10.1690277 10.1157867,11.8461187 C10.5417146,10.8079195 11.1273654,10.6215761 12.3785285,10.7546785 Z" id="路径" fill="#2D4F8D" fill-rule="nonzero"></path>
            <path d="M18.9537899,12.298667 C18.474621,12.298667 18.0753137,12.6979744 18.0753137,13.1771432 C18.0753137,13.6563121 18.474621,14.0556195 18.9537899,14.0556195 C19.4329587,14.0556195 19.8322661,13.6563121 19.8322661,13.1771432 C19.8322661,12.6979744 19.4329587,12.298667 18.9537899,12.298667 Z M19.2732358,13.1239023 C19.1401333,13.1239023 19.0070309,13.0174203 19.0070309,12.8576973 C19.0070309,12.7245949 19.1135128,12.5914924 19.2732358,12.5914924 C19.4329587,12.5914924 19.5394407,12.6979744 19.5394407,12.8576973 C19.5128202,12.9907998 19.4063382,13.1239023 19.2732358,13.1239023 Z" id="形状" fill="#2D4F8D" fill-rule="nonzero"></path>
            <path d="M12.1389441,12.7778359 C11.5799138,12.7778359 11.1273654,13.2303842 11.1273654,13.7894145 C11.1273654,14.3484449 11.5799138,14.8009932 12.1389441,14.8009932 C12.6979744,14.8009932 13.1505228,14.3484449 13.1505228,13.7894145 C13.1505228,13.2303842 12.6979744,12.7778359 12.1389441,12.7778359 Z M12.511631,13.7095531 C12.351908,13.7095531 12.2188056,13.5764506 12.2188056,13.4167277 C12.2188056,13.2570047 12.351908,13.1239023 12.511631,13.1239023 C12.6713539,13.1239023 12.8044564,13.2570047 12.8044564,13.4167277 C12.8044564,13.5764506 12.6713539,13.7095531 12.511631,13.7095531 Z" id="形状" fill="#2D4F8D" fill-rule="nonzero"></path>
            <path d="M9.92944329,8.46531626 C8.6516597,9.39703346 8.06600889,10.83454 8.25235233,12.8576973 C8.70490069,17.5162833 10.6748171,25.8484971 11.3669498,28.7501307 C11.6065342,28.8299922 11.8461187,28.9098537 12.0857031,28.9897151 C11.6597752,27.2327627 9.60999739,18.6609645 8.70490069,12.0857031 C8.46531626,10.3287507 9.15744904,9.2905515 9.92944329,8.46531626 Z" id="路径" fill="#D5D7D8" fill-rule="nonzero"></path>
            <path d="M13.0972818,7.32063513 C13.2037637,7.32063513 13.2836252,7.29401464 13.2836252,7.29401464 C11.8993597,6.62850236 9.71647936,6.60188187 9.13082855,6.60188187 C9.07758757,6.70836383 9.02434658,6.84146629 9.02434658,6.97456875 C8.99772609,7.00118924 11.5799138,6.84146629 13.0972818,7.32063513 L13.0972818,7.32063513 Z" id="路径" fill="#D5D7D8" fill-rule="nonzero"></path>
            <path d="M10.5949556,5.8831286 C10.1690277,5.59030319 9.82296133,5.40395975 9.60999739,5.29747779 C9.42365395,5.32409828 9.26393101,5.32409828 9.07758757,5.35071877 C9.07758757,5.35071877 9.68985887,5.53706221 10.3819916,5.8831286 C10.3819916,5.8831286 10.3553712,5.8831286 10.3287507,5.8831286 C10.5150941,5.8831286 10.5949556,5.8831286 10.5949556,5.8831286 Z" id="路径" fill="#D5D7D8" fill-rule="nonzero"></path>
            <path d="M21.3230136,23.5857554 C20.8704653,23.4792734 19.1135128,24.7304365 18.4480005,25.2096054 C18.42138,25.0765029 18.3947596,24.9700209 18.3681391,24.9167799 C18.2882776,24.650575 16.5845661,24.810298 16.1852588,25.2362258 C15.1204391,24.7304365 12.9907998,23.7454783 12.9641793,24.3577496 C12.8843178,25.1563644 12.9641793,28.4839258 13.3901072,28.7235102 C13.7095531,28.9098537 15.5197465,27.9248955 16.4248432,27.4191061 C16.4248432,27.4191061 16.4248432,27.4191061 16.4514637,27.4191061 C17.010494,27.5522086 18.0486932,27.4191061 18.42138,27.1795217 C18.474621,27.1529012 18.5012415,27.0996602 18.527862,27.0464193 C19.3530972,27.3658652 21.1366702,28.0047569 21.509357,27.8716545 C21.9885259,27.738552 21.8820439,23.7188578 21.3230136,23.5857554 L21.3230136,23.5857554 Z" id="路径" fill="#67BD47" fill-rule="nonzero"></path>
            <path d="M16.4514637,27.4191061 C15.8924334,27.3126242 16.0787768,26.7535939 16.0787768,25.4491898 C16.0787768,25.4491898 16.0787768,25.4491898 16.0787768,25.4491898 C15.9456743,25.5290512 15.8391924,25.6355332 15.8391924,25.7420152 C15.8391924,27.0464193 15.6262285,27.6320701 16.2118793,27.7119315 C16.7709096,27.845034 17.8091087,27.7119315 18.2350366,27.4723471 C18.3148981,27.4191061 18.3415186,27.3392447 18.3681391,27.2061422 C17.9688317,27.4457266 16.9838735,27.5522086 16.4514637,27.4191061 L16.4514637,27.4191061 Z" id="路径" fill="#43A347" fill-rule="nonzero"></path>
        </g>
    </g>
</svg>