<?xml version="1.0" encoding="UTF-8"?>
<svg width="36px" height="36px" viewBox="0 0 36 36" version="1.1" xmlns="http://www.w3.org/2000/svg" xmlns:xlink="http://www.w3.org/1999/xlink">
    <!-- Generator: Sketch 63.1 (92452) - https://sketch.com -->
    <title>Yandex</title>
    <desc>Created with Sketch.</desc>
    <g id="Yandex" stroke="none" stroke-width="1" fill="none" fill-rule="evenodd">
        <path d="M23.8017717,2 L18.9527714,2 C14.1888891,2 10.1483367,5.62659451 10.1483367,12.6671118 C10.1483367,16.890888 12.1051136,20.005482 15.5924172,21.5415539 L9.08519298,33.3177777 C8.87244814,33.7021471 9.08519298,34 9.42493224,34 L12.4448472,34 C12.7001939,34 12.8704015,33.9148891 12.9555335,33.7021471 L18.8676606,22.1386654 L20.9946592,22.1386654 L20.9946592,33.7021471 C20.9946592,33.8297783 21.1222904,34 21.2918093,34 L23.9294028,34 C24.1847354,34 24.2698463,33.8723688 24.2698463,33.6595565 L24.2698463,2.42686228 C24.2698463,2.12761711 24.0996246,2 23.8017717,2 Z M20.9946592,19.4083705 L19.208104,19.4083705 C16.4009213,19.4083705 13.6789337,17.3602277 13.6789337,12.2402221 C13.6789337,6.9058931 16.2306995,4.73018238 18.82507,4.73018238 L20.9946592,4.73018238 L20.9946592,19.4083705 Z" id="path40" fill="#FF0303" fill-rule="nonzero"></path>
    </g>
</svg>